# xmcd
#
# Track frame offsets:
#	150
#	12200
#	22596
#	32804
#	44158
#	54609
#	66113
#	83994
#	96495
#	108031
#	116802
#	128808
#	140785
#	153895
#	167700
#
# Disc length: 2408 seconds
#
# Revision: 0
# Processed by: cddbd v1.4PL0 Copyright (c) Steve Scherf et al.
# Submitted via: audiograbber 1.81.02
#
DISCID=c809660f
DTITLE=Francis, Connie - Millenium Collection CD 1
DYEAR=1999
DGENRE=Pop
TTITLE0=Everybody's Somebody's Fool
TTITLE1=Who's Sorry Now
TTITLE2=Stupid Cupid
TTITLE3=My Happiness
TTITLE4=Lipstick On Your Collar
TTITLE5=Among My Souvenirs
TTITLE6=Mamma
TTITLE7=Teddy
TTITLE8=My Heart Has A Mind In Its Own
TTITLE9=Many Tears Ago
TTITLE10=Where The Boys Are
TTITLE11=Breakin' In A Brand New Broken Heart
TTITLE12=Together
TTITLE13=Don't Break The Heart That Loves You
TTITLE14=Second Hand Love
EXTD=
EXTT0=
EXTT1=
EXTT2=
EXTT3=
EXTT4=
EXTT5=
EXTT6=
EXTT7=
EXTT8=
EXTT9=
EXTT10=
EXTT11=
EXTT12=
EXTT13=
EXTT14=
PLAYORDER=
